<svg width="257" height="257" viewBox="0 0 257 257" fill="none" xmlns="http://www.w3.org/2000/svg">
<g clip-path="url(#clip0_218_854)">
<path d="M267.182 390.983L321.621 319.248C321.621 319.248 352.26 342.225 381.97 324.165C381.97 324.165 422.747 292.124 377.892 251.347L422.747 292.124L408.766 290.377C408.766 290.377 413.217 374.848 326.813 343.972L274.779 397.836H249.73L267.182 390.983Z" fill="#61FFD7"/>
<path d="M222.438 134.113L214.499 131.424L204.1 127.475C204.1 127.473 204.102 127.471 204.102 127.471L203.375 127.2L199.796 125.84L199.787 125.861L179.828 118.421C175.893 116.955 171.547 118.148 168.684 121.223C167.181 122.838 165.359 124.158 163.291 125.102C159.155 126.99 154.531 127.156 150.27 125.568C141.734 122.385 137.255 113.036 140 104.447C143.288 97.0088 140.87 88.0062 133.757 83.3277C126.02 78.2386 115.576 80.539 110.231 88.1021L79.9095 130.996L53.7082 168.066L43.3818 161.185C43.0689 160.977 42.7253 160.856 42.3762 160.81L42.3799 160.803L33.8836 159.924L40.5714 164.979L40.5732 164.975C40.6184 165.013 40.6654 165.051 40.7142 165.086L51.5959 172.737L70.3336 185.981C74.9199 189.223 81.2659 188.133 84.5085 183.547L89.4384 176.571C89.4402 176.569 89.442 176.566 89.4438 176.564L133.898 113.672L119.067 144.697C124.485 150.956 130.077 154.414 138.365 157.503C146.804 160.649 155.718 161.503 164.373 160.092C168.836 159.364 173.231 158.032 177.454 156.103C188.337 151.131 196.953 142.704 202.125 132.084L212.876 135.864C213.283 136.007 213.703 136.03 214.099 135.955V135.958L222.438 134.113Z" fill="#61FFD7"/>
</g>
<defs>
<clipPath id="clip0_218_854">
<rect width="256.32" height="256.32" fill="white"/>
</clipPath>
</defs>
</svg>
