<svg
    width="26"
    height="26"
    viewBox="0 0 26 26"
    fill="none"
    xmlns="http://www.w3.org/2000/svg"
>
    <path
        d="M18.75 0C19.612 0 20.4386 0.34241 21.0481 0.951903C21.6576 1.5614 22 2.38805 22 3.25V14.75C22 15.612 21.6576 16.4386 21.0481 17.0481C20.4386 17.6576 19.612 18 18.75 18H7.25C6.38805 18 5.5614 17.6576 4.9519 17.0481C4.34241 16.4386 4 15.612 4 14.75V3.25C4 2.38805 4.34241 1.5614 4.9519 0.951903C5.5614 0.34241 6.38805 0 7.25 0H18.75ZM20.5 5.5H5.5V14.75C5.5 15.716 6.284 16.5 7.25 16.5H18.75C19.2141 16.5 19.6592 16.3156 19.9874 15.9874C20.3156 15.6592 20.5 15.2141 20.5 14.75V5.5ZM14.995 7.195C15.6617 7.195 16.1907 7.37233 16.582 7.727C16.972 8.08167 17.1673 8.562 17.168 9.168C17.168 9.516 17.0783 9.826 16.899 10.098C16.7163 10.3732 16.4637 10.5948 16.167 10.74C16.5383 10.9133 16.824 11.1493 17.024 11.448C17.224 11.748 17.324 12.0867 17.324 12.464C17.324 13.0887 17.1123 13.5843 16.689 13.951C16.2657 14.317 15.7027 14.5 15 14.5C14.2933 14.5 13.7277 14.316 13.303 13.948C12.8783 13.5807 12.666 13.086 12.666 12.464C12.666 12.0827 12.767 11.7407 12.969 11.438C13.171 11.136 13.4543 10.9033 13.819 10.74C13.5243 10.5943 13.2737 10.3727 13.093 10.098C12.914 9.82128 12.8214 9.49753 12.827 9.168C12.827 8.56267 13.0223 8.08267 13.413 7.728C13.803 7.37267 14.3303 7.195 14.995 7.195ZM11.22 7.269V14.402H10.038V8.694L8.295 9.29V8.29L11.068 7.269H11.22ZM14.99 11.229C14.6453 11.229 14.3697 11.3363 14.163 11.551C13.9563 11.7663 13.853 12.051 13.853 12.405C13.853 12.7537 13.9547 13.032 14.158 13.24C14.3613 13.4487 14.642 13.553 15 13.553C15.358 13.553 15.637 13.452 15.837 13.25C16.037 13.048 16.137 12.7663 16.137 12.405C16.137 12.0543 16.0323 11.7703 15.823 11.553C15.613 11.3363 15.3353 11.228 14.99 11.228ZM14.995 8.147C14.6923 8.147 14.453 8.242 14.277 8.432C14.101 8.622 14.0133 8.88167 14.014 9.211C14.014 9.53633 14.1027 9.795 14.28 9.987C14.4567 10.179 14.6967 10.275 15 10.275C15.3033 10.275 15.5433 10.179 15.72 9.987C15.898 9.79567 15.9867 9.537 15.986 9.211C15.986 8.901 15.8967 8.64633 15.718 8.447C15.538 8.247 15.297 8.147 14.995 8.147ZM18.75 1.5H7.25C6.78587 1.5 6.34075 1.68437 6.01256 2.01256C5.68437 2.34075 5.5 2.78587 5.5 3.25V4H20.5V3.25C20.5 2.78587 20.3156 2.34075 19.9874 2.01256C19.6592 1.68437 19.2141 1.5 18.75 1.5Z"
        fill="currentColor"
    />
</svg>