<svg width="24" height="24" viewBox="0 0 24 24" fill="none" xmlns="http://www.w3.org/2000/svg">
<path d="M13.9999 21C13.7166 21 13.4793 20.904 13.2879 20.712C13.0966 20.52 13.0006 20.2827 12.9999 20C12.9993 19.7173 13.0953 19.48 13.2879 19.288C13.4806 19.096 13.7179 19 13.9999 19H19.9999C20.2833 19 20.5209 19.096 20.7129 19.288C20.9049 19.48 21.0006 19.7173 20.9999 20C20.9993 20.2827 20.9033 20.5203 20.7119 20.713C20.5206 20.9057 20.2833 21.0013 19.9999 21H13.9999ZM5.52494 9H8.99994V5H7.27494L5.52494 9ZM16.2879 17.713C16.0959 17.521 15.9999 17.2833 15.9999 17V8C15.9999 7.71667 15.9039 7.47933 15.7119 7.288C15.5199 7.09667 15.2826 7.00067 14.9999 7H10.9999V10C10.9999 10.2833 10.9039 10.521 10.7119 10.713C10.5199 10.905 10.2826 11.0007 9.99994 11H3.99994C3.63328 11 3.34994 10.85 3.14994 10.55C2.94994 10.25 2.92494 9.93333 3.07494 9.6L5.44994 4.2C5.61661 3.83333 5.86228 3.54167 6.18694 3.325C6.51161 3.10833 6.87428 3 7.27494 3H8.99994C9.54994 3 10.0209 3.196 10.4129 3.588C10.8049 3.98 11.0006 4.45067 10.9999 5H14.9999C15.8333 5 16.5416 5.29167 17.1249 5.875C17.7083 6.45833 17.9999 7.16667 17.9999 8V17C17.9999 17.2833 17.9039 17.521 17.7119 17.713C17.5199 17.905 17.2826 18.0007 16.9999 18C16.7173 17.9993 16.4799 17.9043 16.2879 17.713Z" fill="currentColor"/>
</svg>
