<svg width="24" height="24" viewBox="0 0 24 24" fill="none" xmlns="http://www.w3.org/2000/svg">
<path d="M12 21C9.48333 21 7.35433 20.6127 5.613 19.838C3.87167 19.0633 3.00067 18.1173 3 17V7C3 5.9 3.87933 4.95833 5.638 4.175C7.39667 3.39167 9.51733 3 12 3C14.4827 3 16.6037 3.39167 18.363 4.175C20.1223 4.95833 21.0013 5.9 21 7V17C21 18.1167 20.129 19.0627 18.387 19.838C16.645 20.6133 14.516 21.0007 12 21ZM12 9.025C13.4833 9.025 14.975 8.81233 16.475 8.387C17.975 7.96167 18.8167 7.50767 19 7.025C18.8167 6.54167 17.9793 6.08333 16.488 5.65C14.9967 5.21667 13.5007 5 12 5C10.4833 5 8.996 5.21267 7.538 5.638C6.08 6.06333 5.234 6.52567 5 7.025C5.23333 7.525 6.07933 7.98333 7.538 8.4C8.99667 8.81667 10.484 9.025 12 9.025ZM12 14C12.7 14 13.375 13.9667 14.025 13.9C14.675 13.8333 15.296 13.7373 15.888 13.612C16.48 13.4867 17.0383 13.3327 17.563 13.15C18.0877 12.9673 18.5667 12.759 19 12.525V9.525C18.5667 9.75833 18.0877 9.96667 17.563 10.15C17.0383 10.3333 16.48 10.4877 15.888 10.613C15.296 10.7383 14.675 10.834 14.025 10.9C13.375 10.966 12.7 10.9993 12 11C11.3 11.0007 10.6167 10.9673 9.95 10.9C9.28333 10.8327 8.654 10.7367 8.062 10.612C7.47 10.4873 6.916 10.3333 6.4 10.15C5.884 9.96667 5.41733 9.75833 5 9.525V12.525C5.41667 12.7583 5.88333 12.9667 6.4 13.15C6.91667 13.3333 7.471 13.4877 8.063 13.613C8.655 13.7383 9.284 13.834 9.95 13.9C10.616 13.966 11.2993 13.9993 12 14ZM12 19C12.7667 19 13.546 18.9417 14.338 18.825C15.13 18.7083 15.859 18.5543 16.525 18.363C17.191 18.1717 17.7493 17.955 18.2 17.713C18.6507 17.471 18.9173 17.225 19 16.975V14.525C18.5667 14.7583 18.0877 14.9667 17.563 15.15C17.0383 15.3333 16.48 15.4877 15.888 15.613C15.296 15.7383 14.675 15.834 14.025 15.9C13.375 15.966 12.7 15.9993 12 16C11.3 16.0007 10.6167 15.9673 9.95 15.9C9.28333 15.8327 8.654 15.7367 8.062 15.612C7.47 15.4873 6.916 15.3333 6.4 15.15C5.884 14.9667 5.41733 14.7583 5 14.525V17C5.08333 17.25 5.346 17.4917 5.788 17.725C6.23 17.9583 6.784 18.171 7.45 18.363C8.116 18.555 8.84933 18.709 9.65 18.825C10.4507 18.941 11.234 18.9993 12 19Z" fill="currentColor"/>
</svg>
