<svg width="24" height="24" viewBox="0 0 24 24" fill="none" xmlns="http://www.w3.org/2000/svg">
<path d="M18 9C18.55 9 19.0207 9.19566 19.412 9.587C19.8033 9.97833 19.9993 10.4493 20 11V14C20 14.2833 19.904 14.5207 19.712 14.712C19.52 14.9033 19.2827 14.9993 19 15C18.7173 15.0007 18.4797 14.9047 18.287 14.712C18.0943 14.5193 17.9987 14.282 18 14V11H6V14C6 14.2833 5.904 14.5207 5.712 14.712C5.52 14.9033 5.28267 14.9993 5 15C4.71733 15.0007 4.47967 14.9047 4.287 14.712C4.09433 14.5193 3.99867 14.282 4 14V11C4 10.45 4.19567 9.979 4.587 9.587C4.97833 9.195 5.44933 8.99933 6 9H18Z" fill="currentColor"/>
</svg>
