<svg width="24" height="24" viewBox="0 0 24 24" fill="none" xmlns="http://www.w3.org/2000/svg">
<path d="M3 21C2.71667 21 2.47934 20.904 2.288 20.712C2.09667 20.52 2.00067 20.2827 2 20C1.99934 19.7173 2.09534 19.48 2.288 19.288C2.48067 19.096 2.718 19 3 19H4V5C4 4.45 4.196 3.97933 4.588 3.588C4.98 3.19667 5.45067 3.00067 6 3H18C18.55 3 19.021 3.196 19.413 3.588C19.805 3.98 20.0007 4.45067 20 5V19H21C21.2833 19 21.521 19.096 21.713 19.288C21.905 19.48 22.0007 19.7173 22 20C21.9993 20.2827 21.9033 20.5203 21.712 20.713C21.5207 20.9057 21.2833 21.0013 21 21H3ZM6 19H8V5H6V19ZM10 19H14V5H10V19ZM16 19H18V5H16V19Z" fill="currentColor"/>
</svg>
