<svg width="30" height="30" viewBox="0 0 30 30" fill="none" xmlns="http://www.w3.org/2000/svg">
<path d="M3.75 23.75C3.39584 23.75 3.09917 23.63 2.86 23.39C2.62084 23.15 2.50084 22.8533 2.5 22.5C2.49917 22.1467 2.61917 21.85 2.86 21.61C3.10084 21.37 3.3975 21.25 3.75 21.25H10V15C10 14.6458 10.12 14.3492 10.36 14.11C10.6 13.8708 10.8967 13.7508 11.25 13.75H17.5V7.5C17.5 7.14583 17.62 6.84917 17.86 6.61C18.1 6.37083 18.3967 6.25083 18.75 6.25H26.25C26.6042 6.25 26.9013 6.37 27.1413 6.61C27.3813 6.85 27.5008 7.14667 27.5 7.5C27.4992 7.85333 27.3792 8.15042 27.14 8.39125C26.9008 8.63208 26.6042 8.75167 26.25 8.75H20V15C20 15.3542 19.88 15.6512 19.64 15.8912C19.4 16.1312 19.1033 16.2508 18.75 16.25H12.5V22.5C12.5 22.8542 12.38 23.1512 12.14 23.3912C11.9 23.6312 11.6033 23.7508 11.25 23.75H3.75Z" fill="#DADDE8" stroke="#DADDE8"/>
</svg>
