<svg width="24" height="24" viewBox="0 0 24 24" fill="none" xmlns="http://www.w3.org/2000/svg">
<path d="M6 19H13V16H6V19ZM15 19H18V16H15V19ZM6 14H9V11.025H6V14ZM11 14H18V11.025H11V14ZM7.3 9.025H16.7L12 5.5L7.3 9.025ZM6 21C5.45 21 4.97933 20.8043 4.588 20.413C4.19667 20.0217 4.00067 19.5507 4 19V10C4 9.68333 4.071 9.38333 4.213 9.1C4.355 8.81667 4.55067 8.58333 4.8 8.4L10.8 3.9C10.9833 3.76667 11.175 3.66667 11.375 3.6C11.575 3.53333 11.7833 3.5 12 3.5C12.2167 3.5 12.425 3.53333 12.625 3.6C12.825 3.66667 13.0167 3.76667 13.2 3.9L19.2 8.4C19.45 8.58333 19.646 8.81667 19.788 9.1C19.93 9.38333 20.0007 9.68333 20 10V19C20 19.55 19.804 20.021 19.412 20.413C19.02 20.805 18.5493 21.0007 18 21H6Z" fill="currentColor"/>
</svg>
