<svg width="24" height="24" viewBox="0 0 24 24" fill="none" xmlns="http://www.w3.org/2000/svg">
<path d="M17 8.4V14C17 14.2833 17.096 14.521 17.288 14.713C17.48 14.905 17.7173 15.0007 18 15C18.2827 14.9993 18.52 14.9033 18.712 14.712C18.904 14.5207 19 14.2833 19 14V6C19 5.71667 18.904 5.47933 18.712 5.288C18.52 5.09667 18.2827 5.00067 18 5H10C9.71667 5 9.479 5.096 9.287 5.288C9.095 5.48 8.99933 5.71733 9 6C9.00067 6.28267 9.09667 6.52033 9.288 6.713C9.47933 6.90567 9.71667 7.00133 10 7H15.6L4.7 17.9C4.51667 18.0833 4.425 18.3167 4.425 18.6C4.425 18.8833 4.51667 19.1167 4.7 19.3C4.88333 19.4833 5.11667 19.575 5.4 19.575C5.68333 19.575 5.91667 19.4833 6.1 19.3L17 8.4Z" fill="currentColor"/>
</svg>
