<svg width="30" height="30" viewBox="0 0 30 30" fill="none" xmlns="http://www.w3.org/2000/svg">
<path d="M7.5 18.75C6.8125 18.75 6.22417 18.5054 5.735 18.0163C5.24583 17.5271 5.00083 16.9383 5 16.25V12.5C5 12.1458 5.12 11.8492 5.36 11.61C5.6 11.3708 5.89667 11.2508 6.25 11.25C6.60333 11.2492 6.90042 11.3692 7.14125 11.61C7.38208 11.8508 7.50167 12.1475 7.5 12.5V16.25H22.5V12.5C22.5 12.1458 22.62 11.8492 22.86 11.61C23.1 11.3708 23.3967 11.2508 23.75 11.25C24.1033 11.2492 24.4004 11.3692 24.6412 11.61C24.8821 11.8508 25.0017 12.1475 25 12.5V16.25C25 16.9375 24.7554 17.5263 24.2663 18.0163C23.7771 18.5063 23.1883 18.7508 22.5 18.75H7.5Z" fill="#DADDE8" stroke="#DADDE8"/>
</svg>
