<svg width="36" height="36" viewBox="0 0 36 36" fill="none" xmlns="http://www.w3.org/2000/svg">
<g clip-path="url(#clip0_226_1917)">
<path d="M29.9762 16.8793L29.9686 14.5185C29.9686 14.5079 29.9676 14.4973 29.9669 14.4867H29.9676L30 13L29.1519 14.3256L29.1533 14.3259C29.1235 14.3815 29.1056 14.4437 29.104 14.5105L29.0732 15.8833L29.0556 22.5326C29.0586 22.531 29.0616 22.529 29.0646 22.5274V29.0926H20.8218C20.8234 29.0897 20.8254 29.0868 20.8271 29.0839L13.9724 29.101L12.5572 29.1308C12.4883 29.1324 12.4241 29.1494 12.3669 29.1786L12.3666 29.1773L11 30L12.5327 29.9685V29.9679C12.5436 29.9689 12.5542 29.9695 12.5654 29.9695L14.9991 29.9769L19.1971 29.9997C19.2918 30.0003 19.3847 29.9936 19.4757 29.9807V29.9907H29.9907V21.1405C29.997 21.0782 30 21.0153 29.9997 20.9515L29.9762 16.8793Z" fill="#61FFD7"/>
<path d="M22.4671 6H11.5332C8.47737 6 6 8.47734 6 11.5331V22.4669C6 25.5227 8.47737 28 11.5332 28H26.5705C27.3601 28 28 27.3601 28 26.5705V11.5331C28.0003 8.47734 25.523 6 22.4671 6ZM21.5253 18.7745L17.6594 22.6403C17.4688 22.8309 17.2189 22.9263 16.9694 22.9263C16.7196 22.9263 16.47 22.8309 16.2794 22.6403L12.475 18.8363C12.0937 18.455 12.0937 17.8372 12.475 17.4559C12.856 17.0747 13.4741 17.0747 13.8554 17.4559L16.0243 19.6249V11.8386C16.0243 11.2995 16.4613 10.8626 17.0003 10.8626C17.5394 10.8626 17.9763 11.2995 17.9763 11.8386V19.5631L20.1453 17.3945C20.5266 17.0132 21.1444 17.0135 21.5256 17.3945C21.9063 17.7754 21.9063 18.3932 21.5253 18.7745Z" fill="#61FFD7"/>
</g>
<defs>
<clipPath id="clip0_226_1917">
<rect width="36" height="36" fill="white"/>
</clipPath>
</defs>
</svg>
