<svg width="21" height="27" viewBox="0 0 21 27" fill="none" xmlns="http://www.w3.org/2000/svg">
<path d="M20.489 10.2446C20.489 4.58665 15.9023 0 10.2444 0C4.58637 0 0 4.58692 0 10.2446C0 10.2917 0.00110187 10.3385 0.00110187 10.3854C0.00110187 17.9729 7.23415 24.123 9.53849 25.8897L5.00554 25.9013L3.82762 25.9269C3.77034 25.9283 3.71691 25.9429 3.66926 25.968L3.66899 25.9669L2.53155 26.6727L3.80724 26.6457V26.6452C3.81633 26.646 3.82514 26.6466 3.83451 26.6466L5.86014 26.6529L9.35424 26.6725C9.70676 26.6744 10.032 26.5584 10.2934 26.3615C21.0103 19.0211 20.489 10.2446 20.489 10.2446ZM13.7376 12.3796L9.74642 14.6839C8.70538 15.2849 7.40435 14.5336 7.40435 13.3317V8.723C7.40435 7.52112 8.70538 6.76981 9.74642 7.37075L13.7376 9.67509C14.7787 10.2763 14.7787 11.7787 13.7376 12.3796Z" fill="#61FFD7"/>
</svg>
